<svg xmlns="http://www.w3.org/2000/svg" viewBox="0 0 256 257">
  <defs>
    <linearGradient id="a" x1="-.8%" x2="57.6%" y1="7.7%" y2="78.4%">
      <stop offset="0%" stop-color="#41D1FF"/>
      <stop offset="100%" stop-color="#BD34FE"/>
    </linearGradient>
    <linearGradient id="b" x1="43.4%" x2="50.3%" y1="2.2%" y2="89%">
      <stop offset="0%" stop-color="#FFEA83"/>
      <stop offset="8.3%" stop-color="#FFDD35"/>
      <stop offset="100%" stop-color="#FFA800"/>
    </linearGradient>
  </defs>
  <path fill="url(#a)" d="M255.2 40.7 135.7 253c-2.6 4.7-9.3 4.7-11.9 0L.8 40.7c-3-5.4.8-12 6.9-12h240.6c6.1 0 9.9 6.6 6.9 12z"/>
  <path fill="url(#b)" d="M185.6 0 96.3 154.3a7 7 0 0 0 6 10.5h178.9a7 7 0 0 0 6-10.5L197.9 0a7 7 0 0 0-12.3 0z"/>
</svg>
